<svg id="Layer_1" data-name="Layer 1" xmlns="http://www.w3.org/2000/svg" viewBox="0 0 1080 251.63"><defs><style>.cls-1{fill:#fff;}</style></defs><ellipse class="cls-1" cx="34.87" cy="62.48" rx="23.76" ry="23.78"/><ellipse class="cls-1" cx="226.62" cy="23.78" rx="23.76" ry="23.78"/><ellipse class="cls-1" cx="421.27" cy="57.71" rx="23.76" ry="23.78"/><path class="cls-1" d="M215.61,251.63c-1.13,0-2.25-.11-3.38-.18C120.54,246,42.63,194.06,0,119.81a102.39,102.39,0,0,0,12.26,1.48c54.49,3.22,101.42-37.71,106.17-91.92-.05.59-.09,1.17-.12,1.76A263.16,263.16,0,0,0,215.61,251.63Z"/><path class="cls-1" d="M314.62,81.36a220.69,220.69,0,0,1-86.24,162.58,221,221,0,0,1-86-188.51,224.76,224.76,0,0,1,3-25.66,84.42,84.42,0,0,0,165.84-2.5A222.39,222.39,0,0,1,314.62,81.36Z"/><path class="cls-1" d="M457.69,115.86c-42.92,77.83-123.78,130.91-216.12,135.7A262.87,262.87,0,0,0,339.05,62a265.76,265.76,0,0,0-.2-34.47A100.75,100.75,0,0,0,433,117.45,100.44,100.44,0,0,0,457.69,115.86Z"/><path class="cls-1" d="M505.22,66h40.87l31.74,52.45L609.69,66h39.39v84.27h-28.4V92L584.5,150.29H569.06L532.88,92v58.33H505.22Z"/><path class="cls-1" d="M783.13,65.45V106a45.19,45.19,0,0,1-1.3,10.67,41,41,0,0,1-5.1,11.63A42.09,42.09,0,0,1,767,139.25q-5.89,4.71-16.29,7.86a82.13,82.13,0,0,1-23.8,3.14h-4.43a99,99,0,0,1-18.63-1.62,61.49,61.49,0,0,1-14.2-4.33,44.09,44.09,0,0,1-10.21-6.51,37.79,37.79,0,0,1-7-7.76,41,41,0,0,1-4.24-8.42,41.54,41.54,0,0,1-2.22-8.2,49.94,49.94,0,0,1-.55-7.41V65.45h28.78v39a26.4,26.4,0,0,0,1.29,8.37,24.15,24.15,0,0,0,4.36,7.63q3.07,3.76,9.41,6a46.73,46.73,0,0,0,15.19,2.19,45.21,45.21,0,0,0,14.95-2.19,20.83,20.83,0,0,0,9.34-6,23.66,23.66,0,0,0,4.43-7.63,26.4,26.4,0,0,0,1.29-8.37v-39Z"/><path class="cls-1" d="M834.27,118.71h-8.75v31.54H799.31V66.92h26.21V93.63h9.89l33-26.71h33.3L853.54,105l50.39,45.25h-34.2Z"/><path class="cls-1" d="M1041.35,150.13h-28.24l-7.87-15.23h-60l-7.88,15.23H909.08L953.85,66.8h42.73Zm-86.49-34h40.7L979.7,85.48h-9l-15.86,30.6Z"/><path class="cls-1" d="M1078.33,150.18h-28.71V66.1h28.71Z"/><path class="cls-1" d="M516.43,186.16a21.77,21.77,0,0,1-3.67-.29,13.35,13.35,0,0,1-2.8-.75,8.76,8.76,0,0,1-2-1.14,7,7,0,0,1-1.37-1.35,6.6,6.6,0,0,1-.82-1.47,6.24,6.24,0,0,1-.43-1.42,7.89,7.89,0,0,1-.1-1.28v-.6a8.15,8.15,0,0,1,.2-1.88,6.55,6.55,0,0,1,.91-2,6.65,6.65,0,0,1,1.86-1.88,10.52,10.52,0,0,1,3.27-1.32,20.38,20.38,0,0,1,5-.54h.92a22.89,22.89,0,0,1,4.88.47,12.12,12.12,0,0,1,3.28,1.13,7.2,7.2,0,0,1,1.89,1.55,4.76,4.76,0,0,1,.94,1.57,4.3,4.3,0,0,1,.22,1.33v.23H523a2.24,2.24,0,0,0-.17-.44,3.18,3.18,0,0,0-.52-.63,3.64,3.64,0,0,0-1-.73,8.08,8.08,0,0,0-1.76-.52,13.19,13.19,0,0,0-2.66-.24,12,12,0,0,0-3.08.34,4.54,4.54,0,0,0-1.91.94,3.59,3.59,0,0,0-.91,1.26,3.77,3.77,0,0,0-.27,1.44v.25a3.57,3.57,0,0,0,.3,1.44,4.46,4.46,0,0,0,1,1.34,4.6,4.6,0,0,0,1.94,1,10.37,10.37,0,0,0,3,.39c3.44,0,5.46-.88,6.08-2.66a.39.39,0,0,0,0-.06h5.56v.23a4.43,4.43,0,0,1-.24,1.4,5,5,0,0,1-1,1.62,6.86,6.86,0,0,1-1.91,1.58,12.06,12.06,0,0,1-3.27,1.16,22.6,22.6,0,0,1-4.83.47Z"/><path class="cls-1" d="M575.08,170.32a25,25,0,0,1,3.95.28,15,15,0,0,1,3,.73,8.69,8.69,0,0,1,2.1,1.11,7,7,0,0,1,1.41,1.32,6.39,6.39,0,0,1,.82,1.44,6.75,6.75,0,0,1,.4,1.4,9,9,0,0,1,.09,1.3v.62a8.73,8.73,0,0,1-.09,1.27,6.9,6.9,0,0,1-.4,1.42,6.72,6.72,0,0,1-.81,1.46,6.78,6.78,0,0,1-1.41,1.34,9.09,9.09,0,0,1-2.1,1.13,14.52,14.52,0,0,1-3,.75,25.19,25.19,0,0,1-4,.29h-.71a25.46,25.46,0,0,1-4-.29,14.47,14.47,0,0,1-3-.75,9.09,9.09,0,0,1-2.1-1.13,7.13,7.13,0,0,1-1.42-1.34,6.32,6.32,0,0,1-.81-1.46,6.81,6.81,0,0,1-.39-1.42,8.73,8.73,0,0,1-.09-1.27v-.62a8.91,8.91,0,0,1,.09-1.29,7,7,0,0,1,.39-1.4,5.87,5.87,0,0,1,.81-1.45,7.19,7.19,0,0,1,1.4-1.32,8.69,8.69,0,0,1,2.1-1.11,15.15,15.15,0,0,1,3-.73,25.52,25.52,0,0,1,4-.28Zm6.26,7.72a3.6,3.6,0,0,0-.16-1.09,3.15,3.15,0,0,0-.6-1.07,4,4,0,0,0-1.17-.95,7.28,7.28,0,0,0-1.95-.64,12.1,12.1,0,0,0-2.31-.25h-.7q-6.37.12-6.37,4v.25a3.47,3.47,0,0,0,.28,1.4,4.2,4.2,0,0,0,.95,1.32,4.8,4.8,0,0,0,2.09,1.05,12.72,12.72,0,0,0,3.13.39h.54a12.61,12.61,0,0,0,2.91-.38,4.9,4.9,0,0,0,2.1-1,3.9,3.9,0,0,0,1-1.31,3.47,3.47,0,0,0,.28-1.4Z"/><path class="cls-1" d="M627.51,170.59l10.66,9.64v-9.64h5.17v15.32h-5.17l-11.34-10.15v10.15h-5.16V170.59Z"/><path class="cls-1" d="M683.71,185.79a10.63,10.63,0,0,1-2.87-.95,4.91,4.91,0,0,1-1.61-1.35,4.17,4.17,0,0,1-.76-1.43,5.45,5.45,0,0,1-.17-1.36v-.23h5.46c.12,1.62,1.29,2.43,4.48,2.43h1.22a14.19,14.19,0,0,0,2.18-.13,4.84,4.84,0,0,0,1.5-.38,1.48,1.48,0,0,0,.63-.5,1.23,1.23,0,0,0,.16-.61,1.09,1.09,0,0,0-.27-.78,2.52,2.52,0,0,0-1.26-.51,16.49,16.49,0,0,0-2.85-.26l-1.65,0-1.23,0q-8.14-.21-8.15-4.49V175a4.28,4.28,0,0,1,.21-1.37,3.28,3.28,0,0,1,.8-1.26,5.08,5.08,0,0,1,1.59-1.06,10.94,10.94,0,0,1,2.64-.71,23,23,0,0,1,3.86-.28h1.55a25.43,25.43,0,0,1,4,.29,12,12,0,0,1,2.79.74,5.38,5.38,0,0,1,1.71,1.11,3.8,3.8,0,0,1,.91,1.31,4,4,0,0,1,.25,1.39v.21h-5.44a2,2,0,0,0-.12-.43,1.91,1.91,0,0,0-.37-.46,2.28,2.28,0,0,0-.76-.47,6.39,6.39,0,0,0-1.41-.33,10.61,10.61,0,0,0-1.92-.15h-.78a13,13,0,0,0-2.72.22,2.73,2.73,0,0,0-1.22.45.92.92,0,0,0-.22.65.88.88,0,0,0,.24.64,2.36,2.36,0,0,0,1.12.45,11.91,11.91,0,0,0,2.5.23l1.23,0,1.58,0c3.11.06,5.36.44,6.75,1.16a3.61,3.61,0,0,1,2.08,3.39v.29a5,5,0,0,1-.21,1.51,3.55,3.55,0,0,1-.83,1.37,5,5,0,0,1-1.67,1.18,12.16,12.16,0,0,1-2.85.77,26.24,26.24,0,0,1-4.23.3h-1.55A21.51,21.51,0,0,1,683.71,185.79Z"/><path class="cls-1" d="M755.35,170.48v7.38a8.7,8.7,0,0,1-.23,1.94,7.58,7.58,0,0,1-.93,2.11,7.44,7.44,0,0,1-1.77,2,8.78,8.78,0,0,1-3,1.43,15,15,0,0,1-4.33.57h-.8a17.7,17.7,0,0,1-3.39-.29,11.11,11.11,0,0,1-2.58-.79,8,8,0,0,1-1.86-1.18,7,7,0,0,1-1.27-1.41,7.31,7.31,0,0,1-.77-1.53,7.51,7.51,0,0,1-.41-1.49,10.22,10.22,0,0,1-.1-1.35v-7.38h5.23v7.09a4.66,4.66,0,0,0,.24,1.52,4.46,4.46,0,0,0,.79,1.39,3.71,3.71,0,0,0,1.71,1.08,8.4,8.4,0,0,0,2.77.4,8.06,8.06,0,0,0,2.71-.4,3.68,3.68,0,0,0,1.7-1.08,4.34,4.34,0,0,0,.81-1.39,4.94,4.94,0,0,0,.23-1.52v-7.09Z"/><path class="cls-1" d="M796,170.59V182.1h11.61v3.81H790.79V170.59Z"/><path class="cls-1" d="M844.83,174.21h-7.18v-3.62h19.66v3.62h-7.2v11.7h-5.28Z"/><path class="cls-1" d="M911.67,185.88h-5.14l-1.43-2.77H894.18l-1.43,2.77h-5.14l8.15-15.15h7.76Zm-15.73-6.19h7.4l-2.88-5.56h-1.64l-2.88,5.56Z"/><path class="cls-1" d="M951.52,170.59l10.66,9.64v-9.64h5.17v15.32h-5.17l-11.34-10.15v10.15h-5.16V170.59Z"/><path class="cls-1" d="M1013.39,186.16a21.85,21.85,0,0,1-3.67-.29,13.52,13.52,0,0,1-2.8-.75,8.49,8.49,0,0,1-2-1.14,6.83,6.83,0,0,1-1.38-1.35,7,7,0,0,1-.82-1.47,6.24,6.24,0,0,1-.43-1.42,9.2,9.2,0,0,1-.1-1.28v-.6a8.14,8.14,0,0,1,.21-1.88,6.09,6.09,0,0,1,.91-2,6.75,6.75,0,0,1,1.85-1.88,10.59,10.59,0,0,1,3.28-1.32,20.29,20.29,0,0,1,5-.54h.92a22.92,22.92,0,0,1,4.89.47,11.91,11.91,0,0,1,3.27,1.13,6.89,6.89,0,0,1,1.89,1.55,4.81,4.81,0,0,1,1,1.57,4.6,4.6,0,0,1,.21,1.33v.23H1020a2.25,2.25,0,0,0-.16-.44,3.18,3.18,0,0,0-.52-.63,3.69,3.69,0,0,0-1-.73,8,8,0,0,0-1.75-.52,13.23,13.23,0,0,0-2.67-.24,11.88,11.88,0,0,0-3.07.34,4.42,4.42,0,0,0-1.91.94,3.37,3.37,0,0,0-1.18,2.7v.25a3.57,3.57,0,0,0,.3,1.44,4.29,4.29,0,0,0,1,1.34,4.61,4.61,0,0,0,1.93,1,10.44,10.44,0,0,0,3,.39c3.43,0,5.46-.88,6.07-2.66a.15.15,0,0,0,0-.06h5.56v.23a4.43,4.43,0,0,1-.24,1.4,5.4,5.4,0,0,1-1,1.62,7,7,0,0,1-1.91,1.58,12.15,12.15,0,0,1-3.28,1.16,22.46,22.46,0,0,1-4.83.47Z"/><path class="cls-1" d="M1066.26,179.86l-8.82-9.27h6.4l5.12,5.57,5.21-5.57H1080l-8.58,9.27v5.85h-5.16Z"/></svg>